# xmcd
#
# Track frame offsets: 
#        150
#        12604
#        30683
#        45686
#        61590
#        81093
#        109146
#        126175
#        134879
#        150033
#
# Disc length: 2249 seconds
#
# Revision: 0
# Processed by: cddbd v1.5.2PL0 Copyright (c) Steve Scherf et al.
# Submitted via: ExactAudioCopy v1.3
#
DISCID=7d08c70a
DTITLE=Kelly's Lot - Pastrami And Jam
DYEAR=2009
DGENRE=Blues Rock
TTITLE0=Give It Up
TTITLE1=Nobody Here But Me
TTITLE2=Route 66
TTITLE3=Mockingbird
TTITLE4=Why Don't You Do Right
TTITLE5=House Of The Rising Sun
TTITLE6=Today
TTITLE7=Mercedes Benz
TTITLE8=Just A Heart
TTITLE9=Let Me Go
EXTD=
EXTT0=
EXTT1=
EXTT2=
EXTT3=
EXTT4=
EXTT5=
EXTT6=
EXTT7=
EXTT8=
EXTT9=
PLAYORDER=
